<svg width="128" height="14" viewBox="0 0 128 14" fill="none" xmlns="http://www.w3.org/2000/svg">
<path d="M3.90178 10.4888C3.90178 10.9041 3.90178 11.3672 3.90178 11.7345C3.88581 12.038 3.88581 12.3574 3.86984 12.6608C3.85387 12.9803 3.69416 13.3157 3.26295 13.3316C2.71994 13.3476 2.16096 13.3636 1.60199 13.3157C1.21869 13.2677 1.02704 13.0601 0.979124 12.6608C0.947183 12.5011 0.947183 12.3255 0.947183 12.1338C1.01107 8.748 1.09092 5.77743 1.09092 2.88671C1.09092 2.50341 1.04301 2.12011 0.979124 1.73682C0.89927 1.1459 1.02704 0.906334 1.61796 0.810508C3.40669 0.539005 5.73843 0.730654 7.27162 1.84861C10.0186 3.84496 9.57142 8.87577 6.48905 10.2013C6.04187 10.409 5.54678 10.4888 5.03571 10.4888C4.68435 10.4888 4.33299 10.4888 3.90178 10.4888ZM4.09343 4.22826C4.06149 5.21845 4.01358 6.1767 4.07746 7.13495C4.46076 7.13495 4.79615 7.15092 5.14751 7.13495C5.67454 7.10301 6.08978 6.78359 6.16964 6.27253C6.26546 5.85728 6.26546 5.39413 6.04187 4.99486C5.80231 4.54768 5.45095 4.29215 4.97183 4.22826C4.70032 4.19632 4.42882 4.22826 4.09343 4.22826ZM20.0566 6.57597C20.0566 8.38067 19.7053 9.81805 18.8908 11.1117C18.5234 11.7186 18.0762 12.2137 17.5332 12.6129C15.8882 13.7788 13.9238 13.6191 12.4386 12.2137C11.5282 11.3353 10.9692 10.2333 10.6977 9.00353C10.2825 7.13495 10.4422 5.31428 11.2407 3.58943C11.672 2.79089 12.199 2.0722 12.9017 1.51322C14.5627 0.267501 16.575 0.395268 18.0922 1.86458C19.0185 2.74298 19.5615 3.86093 19.833 5.10666C19.9608 5.68161 20.0247 6.25655 20.0566 6.57597ZM13.5565 7.19883C13.5246 7.82169 13.6523 8.49247 13.9398 9.08339C14.1155 9.45072 14.3231 9.77013 14.5786 10.0416C15.0897 10.5527 15.7445 10.5527 16.2396 10.0736C16.4313 9.8979 16.6229 9.70625 16.7347 9.48266C17.5332 7.93349 17.5492 6.38432 16.7507 4.81918C16.6229 4.53171 16.3833 4.27617 16.1278 4.05258C15.7126 3.7172 15.2175 3.7172 14.7543 4.00467C14.4509 4.24423 14.2273 4.53171 14.0516 4.85112C13.6843 5.55384 13.5246 6.33641 13.5565 7.19883ZM25.2694 10.1375C25.5089 10.1215 25.6846 10.1055 25.8762 10.1055C26.4512 10.1055 27.0102 10.1055 27.5851 10.1215C27.9524 10.1215 28.1441 10.3451 28.224 10.6964C28.3677 11.3033 28.3677 11.9262 28.224 12.5331C28.1441 12.9483 27.8566 13.14 27.4574 13.2039C27.2657 13.2198 27.0741 13.2358 26.8984 13.2518C25.5728 13.2997 24.2312 13.4434 22.9216 13.2997C22.3627 13.2358 21.9474 12.8365 21.8676 12.2616C21.8037 11.8783 21.7717 11.495 21.7398 11.1117C21.6919 8.02931 21.644 4.69142 21.612 1.60905C21.612 1.22575 21.7238 0.794537 22.1391 0.762596C22.9216 0.698713 23.7681 0.698713 24.5666 0.746626C24.8541 0.778567 25.0298 1.01813 25.0458 1.3056C25.0777 1.72084 25.1096 2.15206 25.1096 2.59924C25.1895 4.72336 25.2214 7.11898 25.2694 9.2431C25.2853 9.53057 25.2694 9.81805 25.2694 10.1375ZM33.8816 9.03548C32.7637 9.17921 31.7096 9.1313 30.6715 8.77994C28.4356 7.9814 28.6592 4.21229 28.5953 2.4555C28.5793 2.02429 28.5953 1.60905 28.6432 1.17784C28.6751 0.810508 28.8668 0.682742 29.2181 0.666771C29.4258 0.666771 29.6334 0.682742 29.825 0.682742C30.1924 0.682742 30.5437 0.714683 30.8951 0.682742C31.3902 0.666771 31.6297 0.82648 31.7096 1.32157C31.7575 1.60905 31.7575 1.91249 31.7575 2.21594C31.7735 2.85477 31.7415 3.82899 31.7735 4.48379C31.9172 7.11898 33.9295 6.51209 33.9295 4.19632C33.9136 3.4936 33.8656 2.02429 33.8177 1.32157C33.8018 0.890362 34.0573 0.762596 34.3288 0.730654C34.8079 0.682742 35.4787 0.634829 35.9738 0.698713C36.8522 0.730654 36.9161 1.67293 36.9161 2.35968C36.9161 4.19632 36.9161 6.35238 36.8841 8.20499C36.8522 9.06742 36.6765 9.92984 36.2932 10.7444C35.6863 12.1178 34.6163 12.9803 33.115 13.2677C32.3644 13.4115 31.6457 13.4115 30.8951 13.2677C30.2882 13.14 30.0167 12.9004 29.9368 12.2775C29.857 11.8463 29.857 11.3672 29.8889 10.9041C29.9049 10.4888 30.1285 10.2333 30.5757 10.1694C30.8472 10.1375 31.1187 10.1534 31.3902 10.1534C31.8853 10.1375 32.3804 10.1694 32.8754 10.1055C33.4185 10.0097 33.7698 9.6264 33.8816 9.03548ZM41.3933 10.4888C41.3933 10.9041 41.3933 11.3672 41.3933 11.7345C41.3773 12.038 41.3773 12.3574 41.3613 12.6608C41.3453 12.9803 41.1856 13.3157 40.7544 13.3316C40.2114 13.3476 39.6524 13.3636 39.0935 13.3157C38.7102 13.2677 38.5185 13.0601 38.4706 12.6608C38.4387 12.5011 38.4387 12.3255 38.4387 12.1338C38.5025 8.748 38.5824 5.77743 38.5824 2.88671C38.5824 2.50341 38.5345 2.12011 38.4706 1.73682C38.3907 1.1459 38.5185 0.906334 39.1094 0.810508C40.8982 0.539005 43.2299 0.730654 44.7631 1.84861C47.5101 3.84496 47.0629 8.87577 43.9805 10.2013C43.5333 10.409 43.0383 10.4888 42.5272 10.4888C42.1758 10.4888 41.8245 10.4888 41.3933 10.4888ZM41.5849 4.22826C41.553 5.21845 41.5051 6.1767 41.5689 7.13495C41.9522 7.13495 42.2876 7.15092 42.639 7.13495C43.166 7.10301 43.5813 6.78359 43.6611 6.27253C43.7569 5.85728 43.7569 5.39413 43.5333 4.99486C43.2938 4.54768 42.9424 4.29215 42.4633 4.22826C42.1918 4.19632 41.9203 4.22826 41.5849 4.22826ZM51.4792 6.25655C52.0062 6.36835 54.1942 6.41626 54.881 6.32044C55.0087 4.65947 55.0087 3.09433 55.1046 1.51322C55.1365 0.443179 56.8454 0.554976 57.6439 0.698713C58.2987 0.810508 58.2189 1.67293 58.171 2.08817C58.0751 5.09069 58.0432 8.50844 58.1869 11.3193C58.2987 12.9483 58.3307 13.1719 56.4621 13.3157C55.0726 13.3955 54.7372 12.7567 54.7372 11.3672C54.7213 10.6964 54.7213 9.56251 54.7213 8.8598C53.5554 8.79591 52.4374 8.90771 51.2556 8.82785C51.2396 9.06742 51.2237 9.29101 51.2237 9.48266C51.2077 10.3131 51.2077 11.4311 51.2077 12.2137C51.2077 12.8206 50.8563 13.2837 50.2814 13.3157C49.8182 13.3316 49.387 13.3476 48.9718 13.2837C48.301 13.2039 48.0455 12.8844 48.0455 12.3734C48.0455 8.54038 48.1892 4.72336 48.1413 1.88055C48.0455 1.19381 48.3968 0.794537 49.2113 0.746626C49.6426 0.714683 50.0897 0.714683 50.5689 0.730654C51.2556 0.762596 51.4952 0.954245 51.4952 1.59308C51.4952 3.04642 51.4792 4.49977 51.4792 5.96908C51.4792 6.0649 51.4792 6.14476 51.4792 6.25655ZM69.1201 6.57597C69.1201 8.38067 68.7687 9.81805 67.9542 11.1117C67.5869 11.7186 67.1397 12.2137 66.5967 12.6129C64.9517 13.7788 62.9873 13.6191 61.502 12.2137C60.5917 11.3353 60.0327 10.2333 59.7612 9.00353C59.3459 7.13495 59.5056 5.31428 60.3042 3.58943C60.7354 2.79089 61.2624 2.0722 61.9652 1.51322C63.6261 0.267501 65.6384 0.395268 67.1557 1.86458C68.082 2.74298 68.625 3.86093 68.8965 5.10666C69.0243 5.68161 69.0881 6.25655 69.1201 6.57597ZM62.62 7.19883C62.588 7.82169 62.7158 8.49247 63.0033 9.08339C63.1789 9.45072 63.3866 9.77013 63.6421 10.0416C64.1532 10.5527 64.808 10.5527 65.3031 10.0736C65.4947 9.8979 65.6864 9.70625 65.7981 9.48266C66.5967 7.93349 66.6127 6.38432 65.8141 4.81918C65.6864 4.53171 65.4468 4.27617 65.1913 4.05258C64.776 3.7172 64.2809 3.7172 63.8178 4.00467C63.5143 4.24423 63.2907 4.53171 63.1151 4.85112C62.7477 5.55384 62.588 6.33641 62.62 7.19883ZM73.6141 7.19883C73.678 8.65218 73.7419 10.0895 73.7738 11.5269C73.7898 11.9262 73.7578 12.3414 73.7419 12.7247C73.7259 13.0441 73.5343 13.2677 73.2148 13.3157C73.0711 13.3476 72.9114 13.3795 72.7677 13.3795C72.3524 13.3636 71.9531 13.3476 71.5539 13.3316C70.9789 13.2837 70.6595 12.9803 70.6276 12.4053C70.6116 12.006 70.6435 11.6068 70.6595 11.2075C70.6915 10.393 70.7553 9.57848 70.7873 8.76397C70.8352 7.56616 70.8991 6.35238 70.8991 5.17054C70.915 4.05258 70.8512 2.79089 70.8192 1.67293C70.7873 1.00216 70.931 0.746626 71.6018 0.698713C72.0969 0.666771 72.6399 0.698713 73.1669 0.778567C73.5343 0.82648 73.7738 1.11395 73.9974 1.43337C74.1891 1.6889 74.3488 1.96041 74.5085 2.24788C75.2591 3.70123 76.0257 5.4101 76.8722 6.71971C76.8722 6.16073 76.8881 5.58578 76.8722 5.0268C76.8722 3.9887 76.8402 2.67909 76.8402 1.67293C76.8402 1.1459 77.1117 0.84245 77.6388 0.746626C78.1498 0.6508 78.6609 0.634829 79.156 0.762596C79.683 0.874391 79.9705 1.16187 80.0024 1.70487C80.0503 2.34371 80.0503 3.28598 80.0503 3.94079C80.0823 5.0268 80.0823 6.11282 80.0823 7.19883C80.0983 7.94946 80.0983 8.71606 80.1142 9.46669C80.1302 10.393 80.1621 11.3033 80.1781 12.2137C80.1781 12.6449 80.1142 13.0441 79.699 13.1559C79.0122 13.3636 78.4533 13.3157 77.8304 13.3157C77.3513 13.3476 77.0319 13.124 76.8242 12.7247C76.7284 12.5171 76.6007 12.3095 76.5208 12.1178C76.1854 11.2235 75.7542 10.377 75.1952 9.61042C74.6522 8.8598 74.2689 8.04529 73.7578 7.29466C73.7259 7.26272 73.7099 7.2148 73.678 7.18286C73.662 7.18286 73.6461 7.19883 73.6141 7.19883ZM85.1981 11.8463C85.1981 12.1019 85.1821 12.3734 85.1502 12.6289C85.1022 12.9803 84.9106 13.2039 84.5592 13.2518C84.1759 13.2997 83.3455 13.3476 82.9781 13.3157C82.2275 13.2677 81.9081 12.8844 81.9081 12.1338C81.9081 11.7345 81.9081 11.3512 81.9081 10.936C81.94 8.14111 81.9241 4.77127 82.0518 1.97638C82.0518 1.78473 82.0518 1.57711 82.0678 1.36949C82.0838 0.986188 82.2914 0.746626 82.6747 0.746626C83.1857 0.730654 84.144 0.730654 84.6391 0.778567C85.0543 0.810508 85.1981 1.00216 85.214 1.43337C85.246 1.76876 85.214 2.10414 85.214 2.4555C85.214 8.0932 85.214 10.2812 85.1981 11.8463ZM91.3033 13.3476C86.6398 13.124 86.3364 8.23693 86.9912 4.89904C87.3106 3.28598 88.5723 1.36949 90.3291 0.84245C92.1976 0.283471 94.2738 1.44934 94.8488 3.09433C95.0404 3.68525 94.9766 4.22826 94.4974 4.65947C94.0503 5.04277 93.5552 5.10666 92.9802 4.96292C92.7087 4.89904 92.5011 4.70739 92.4212 4.43588C92.3893 4.30812 92.3574 4.18035 92.2935 4.03661C92.0699 3.46166 91.5109 3.25404 90.9519 3.55749C90.8082 3.66928 90.6485 3.79705 90.5686 3.94079C90.3929 4.14841 90.2332 4.38797 90.1374 4.6435C89.7062 5.84131 89.5305 7.10301 89.8819 8.34873C90.4249 10.8721 91.8623 11.1756 93.1719 8.84383C93.3795 8.49247 93.619 8.34873 94.0343 8.46053C94.3377 8.52441 94.6412 8.63621 94.9446 8.76397C95.6314 9.00353 95.4876 9.70625 95.3439 10.2173C94.8648 11.9102 93.3795 13.4754 91.3033 13.3476ZM97.0198 11.6866C97.0039 10.8561 97.6906 10.1694 98.5051 10.1694C99.3196 10.1694 100.006 10.8242 99.9904 11.6387C99.9744 12.4692 99.3995 13.0761 98.5051 13.124C97.7385 13.1879 97.0358 12.4852 97.0198 11.6866ZM107.541 10.4728C108.148 10.4569 108.468 10.7124 108.484 11.2874C108.499 11.8304 108.468 12.1817 108.42 12.7088C108.372 13.0921 108.148 13.2837 107.749 13.2997C105.816 13.3476 104.076 13.5073 102.494 13.2677C102.031 13.2039 101.712 12.8685 101.696 12.3734C101.584 8.90771 101.584 5.55384 101.568 2.72701C101.568 1.83264 101.552 0.778567 102.558 0.746626C103.117 0.730654 103.676 0.746626 104.219 0.730654C104.571 0.730654 104.906 0.698713 105.241 0.682742C105.912 0.6508 106.567 0.586917 107.206 0.570946C107.605 0.570946 108.132 0.778567 108.26 1.16187C108.436 1.6889 108.484 2.24788 108.372 2.77492C108.308 3.23807 108.004 3.68525 107.397 3.63734C106.854 3.58943 106.311 3.57346 105.768 3.55749C105.401 3.55749 105.13 3.57346 104.922 3.62137C104.203 3.76511 104.363 4.24423 104.331 5.63369C104.331 5.98505 104.714 6.04893 105.018 6.04893C105.577 6.04893 106.056 6.03296 106.535 6.09685C106.839 6.12879 107.062 6.30447 107.078 6.63985C107.094 7.05509 107.142 7.50228 107.126 7.91752C107.11 8.39664 106.839 8.63621 106.327 8.63621C106.072 8.63621 105.816 8.60426 105.577 8.58829C105.305 8.57232 105.034 8.55635 104.762 8.57232C104.491 8.58829 104.395 8.66815 104.395 8.93965C104.395 9.29101 104.379 9.64237 104.395 10.0257C104.411 10.4569 104.507 10.5367 104.938 10.5367C106.551 10.5367 107.046 10.4888 107.541 10.4728ZM116.46 6.40029C117.642 7.91752 118.632 9.6264 119.51 11.2714C119.989 12.1338 119.622 12.7407 118.871 13.14C118.584 13.2997 118.216 13.3476 117.881 13.3955C117.178 13.4594 116.731 12.6449 116.46 12.1977C115.997 11.3353 115.533 10.2493 115.07 9.38683C114.99 9.22713 114.895 9.09936 114.767 8.92368C113.809 10.2173 113.266 11.7665 112.275 13.0282C111.988 13.4115 111.573 13.4754 111.125 13.2837C110.838 13.1719 110.535 12.9803 110.279 12.8046C109.72 12.3893 109.64 11.6547 110.055 10.9839C110.854 9.30698 111.892 7.94946 112.962 6.43223C112.834 6.2885 112.723 6.11282 112.579 5.95311C111.732 5.01083 111.046 3.95676 110.359 2.91866C110.247 2.75895 110.151 2.59924 110.087 2.42356C109.896 2.02429 109.944 1.62502 110.263 1.32157C110.71 0.890362 111.253 0.634829 111.876 0.602888C112.132 0.586917 112.371 0.666771 112.531 0.84245C112.77 1.05007 112.994 1.27366 113.186 1.52919C113.633 2.184 114.08 2.88671 114.527 3.55749C114.623 3.70123 114.703 3.81302 114.815 4.02064C115.006 3.73317 115.166 3.4936 115.31 3.25404C115.613 2.72701 115.901 2.19997 116.22 1.70487C116.284 1.59308 116.364 1.49725 116.444 1.40143C117.146 0.539005 117.785 0.507063 118.664 1.0341C119.207 1.35352 119.398 1.96041 119.159 2.53536C119.031 2.80686 118.903 3.04642 118.728 3.27001C118.057 4.22826 117.354 5.15457 116.683 6.08088C116.603 6.19267 116.524 6.2885 116.46 6.40029ZM127.051 10.4728C127.658 10.4569 127.977 10.7124 127.993 11.2874C128.009 11.8304 127.977 12.1817 127.93 12.7088C127.882 13.0921 127.658 13.2837 127.259 13.2997C125.326 13.3476 123.586 13.5073 122.004 13.2677C121.541 13.2039 121.222 12.8685 121.206 12.3734C121.094 8.90771 121.094 5.55384 121.078 2.72701C121.078 1.83264 121.062 0.778567 122.068 0.746626C122.627 0.730654 123.186 0.746626 123.729 0.730654C124.081 0.730654 124.416 0.698713 124.751 0.682742C125.422 0.6508 126.077 0.586917 126.716 0.570946C127.115 0.570946 127.642 0.778567 127.77 1.16187C127.946 1.6889 127.993 2.24788 127.882 2.77492C127.818 3.23807 127.514 3.68525 126.907 3.63734C126.364 3.58943 125.821 3.57346 125.278 3.55749C124.911 3.55749 124.64 3.57346 124.432 3.62137C123.713 3.76511 123.873 4.24423 123.841 5.63369C123.841 5.98505 124.224 6.04893 124.528 6.04893C125.087 6.04893 125.566 6.03296 126.045 6.09685C126.348 6.12879 126.572 6.30447 126.588 6.63985C126.604 7.05509 126.652 7.50228 126.636 7.91752C126.62 8.39664 126.348 8.63621 125.837 8.63621C125.582 8.63621 125.326 8.60426 125.087 8.58829C124.815 8.57232 124.544 8.55635 124.272 8.57232C124.001 8.58829 123.905 8.66815 123.905 8.93965C123.905 9.29101 123.889 9.64237 123.905 10.0257C123.921 10.4569 124.017 10.5367 124.448 10.5367C126.061 10.5367 126.556 10.4888 127.051 10.4728Z" fill="#FFFDFF"/>
</svg>
