<svg width="522" height="490" viewBox="0 0 522 490" fill="none" xmlns="http://www.w3.org/2000/svg">
<path d="M119.766 276.876L255.549 78.7641L272.239 72.201L285.591 63.9971L357.36 121.014L431.215 194.44L421.2 273.197L438.804 277.691L458.593 275.655L456.169 295.6L443.65 317.987L423.054 341.188L432.746 486.5H125.782L119.766 276.876Z" fill="#FFFDFF"/>
<path opacity="0.5" d="M248.606 389.071C266.508 389.071 281.02 375.21 281.02 358.112C281.02 341.014 266.508 327.153 248.606 327.153C230.704 327.153 216.191 341.014 216.191 358.112C216.191 375.21 230.704 389.071 248.606 389.071Z" fill="#EF64FB"/>
<path opacity="0.5" d="M400.376 375.993C415.216 375.993 427.246 364.37 427.246 350.033C427.246 335.695 415.216 324.072 400.376 324.072C385.536 324.072 373.506 335.695 373.506 350.033C373.506 364.37 385.536 375.993 400.376 375.993Z" fill="#EF64FB"/>
<path d="M181.442 417.211C173.786 429.278 166.447 440.893 158.913 452.745C158.521 453.363 157.639 454.974 156.662 454.762C155.376 454.481 155.444 452.969 155.499 452.47C157.211 437.307 158.754 423.412 160.394 408.878C161.166 402.03 162.016 402.903 153.749 402.399C147.507 402.018 148.382 402.257 148.639 397.506C149.357 384.236 151.08 370.766 151.684 357.489C151.808 354.775 152.986 353.367 156.485 352.764C167.376 350.892 178.191 348.777 189.025 346.725C191.503 346.257 191.767 347.438 191.594 348.837C190.818 355.127 190.665 355.86 189.676 363.871C189.251 367.317 189.302 370.638 188.876 374.084C188.461 377.434 188.901 378.466 193.202 378.205C196.868 377.984 200.548 377.878 204.205 377.611C206.653 377.435 206.611 378.424 205.833 379.636C200.681 387.687 195.49 395.719 190.282 403.746C187.414 408.181 184.484 412.585 181.442 417.211Z" fill="#1E1D1F"/>
<path d="M201.112 35.5061C208.403 39.4865 250.152 62.606 263.845 77.449C264.132 77.7602 264.204 78.1912 264.062 78.5897L260.146 89.5266C260.057 89.7759 260.056 90.0482 260.143 90.2981L264.147 101.747C264.241 102.016 264.232 102.311 264.122 102.574L261.677 108.43C261.527 108.789 261.206 109.048 260.824 109.12L208.127 119.081C207.571 119.186 207.02 118.873 206.826 118.34L194.359 84.0709C194.325 83.9757 194.303 83.8764 194.294 83.7755L191.761 54.5793C191.745 54.3899 191.775 54.1995 191.85 54.0247L199.523 36.0762C199.79 35.4514 200.516 35.1805 201.112 35.5061Z" fill="#EF64FB"/>
<path d="M309.33 18.8587C305.626 24.6617 287.614 53.3619 282.199 71.0238C282.074 71.4311 282.194 71.8617 282.498 72.1608L291.435 80.9561C291.649 81.1663 291.773 81.451 291.78 81.7502L292.123 94.7202C292.125 94.803 292.136 94.8853 292.156 94.9657L293.503 100.442C293.628 100.954 294.084 101.316 294.611 101.323L336.154 101.908C336.806 101.918 337.337 101.386 337.325 100.734L336.669 62.8706C336.667 62.7743 336.653 62.6786 336.628 62.5857L328.382 32.4347C328.316 32.1939 328.174 31.9807 327.977 31.8271L310.994 18.5919C310.459 18.1749 309.694 18.2876 309.33 18.8587Z" fill="#EF64FB"/>
<path d="M430.121 341.395C430.256 338.333 431.71 336.585 434.031 334.249C436.025 332.244 436.809 331.746 438.004 330.314C445.856 320.888 451.832 310.321 456.458 298.978C459.259 292.109 461.231 285.227 461.604 277.541C461.715 275.246 460.839 270.797 455.056 270.959C451.803 271.052 451.352 271.143 446.493 272.083C444.1 272.547 440.42 273.312 438.097 274.031C434.984 274.997 434.6 274.903 434.6 272.721C434.184 262.905 435.449 255.033 437.194 242.948C438.097 239.628 437.738 238.872 438.833 237.057C443.901 228.668 445.716 219.326 445.961 209.751C446.246 198.506 443.019 187.901 439.23 177.382C432.565 158.888 420.686 144.295 406.414 131.369C397.78 123.549 387.984 117.45 377.732 112.043C369.868 107.895 361.681 104.577 353.115 102.193C348.359 100.869 342.707 98.9658 337.822 98.1626C336.258 97.9068 336.658 97.749 336.976 95.9464C338.088 89.6447 338.525 83.5031 338.14 77.0842C337.515 66.7207 335.334 56.7779 332.635 46.8376C330.036 37.2702 326.436 28.1761 320.207 20.4806C315.277 14.3916 308.553 11.4607 301.354 17.8557C293.761 24.6045 288.888 33.0698 284.83 42.1447C280.684 51.4133 278.291 61.8126 276.524 71.7793C276.343 72.7977 276.184 73.0176 275.799 73.0487C272.644 73.3141 268.978 74.7007 266.4 75.3318C265.129 75.6426 265.789 75.7454 264.965 74.9493C258.21 68.4276 251.831 61.0596 244.518 55.1451C231.759 44.8247 220.5 36.694 203.46 31.6306C199.454 30.4401 194.688 31.1142 191.756 34.9512C189.658 37.6981 188.211 42.2451 187.432 45.6255C185.562 53.7442 185.89 60.8755 186.128 69.1137C186.527 82.9986 190.269 94.8802 195.824 110.066C196.332 111.455 195.524 111.409 194.132 112.399C190.362 115.076 188.941 116.281 185.365 119.246C176.208 126.838 167.964 135.309 160.618 144.666C154.25 152.775 148.774 161.462 143.967 170.595C137.455 182.973 132.176 195.878 128.622 209.388C125.661 220.643 123.596 232.154 122.088 243.689C120.406 256.558 119.313 269.522 118.465 282.477C117.692 294.28 117.419 306.126 117.229 317.957C116.733 349.124 117.776 380.277 118.329 411.434C118.512 421.69 118.32 431.953 118.381 442.211C118.469 457.038 114.92 471.76 114.92 486.093L156.234 486.587C158.895 476.305 165.265 468.516 172.756 461.406C183.355 451.346 196.123 446.933 210.419 445.632C218.321 444.915 226.033 445.525 233.629 447.227C240.781 448.831 247.329 452.145 253.349 456.426C253.924 456.835 254.437 457.851 255.357 457.292C256.364 456.68 255.461 455.876 255.371 455.164C254.763 450.361 254.036 445.582 253.028 440.844C252.392 437.844 254.235 435.384 257.478 434.513C262.591 433.139 267.476 434.332 272.197 436.122C274.839 437.124 277.476 438.307 279.71 440.198C280.895 441.205 282.164 441.234 283.34 439.957C289.874 432.873 297.847 432.897 306.208 435.522C308.358 436.196 310.245 437.698 311.445 439.687C312.613 441.626 313.604 442.211 315.809 440.851C321.171 437.54 327.03 436.11 333.353 437.361C336.544 437.992 337.004 438.917 336.334 441.956C335.232 446.962 334.362 452.02 333.388 457.053C333.272 457.655 333.127 458.305 333.84 458.587C334.534 458.862 334.909 458.305 335.256 457.81C340.842 449.842 349.259 446.529 358.162 444.831C366.017 443.333 373.935 444.92 381.379 447.789C390.189 451.186 397.661 456.594 403.387 464.265C408.253 470.784 411.447 476.021 412.555 484.465C421.286 484.704 431.943 486.591 440.42 486.34C440.42 484.712 439.403 481.563 439.208 480.394C437.593 473.882 437.189 471.847 435.574 463.706C434.343 454.992 432.706 446.35 431.565 437.621C430.731 431.245 429.681 424.898 428.928 418.515C427.823 409.129 427.994 399.722 428.132 390.267C428.374 373.953 429.398 357.685 430.121 341.395ZM431.815 323.807C432.052 318.657 432.323 313.508 432.582 308.359C433.2 301.091 433.863 294.383 434.219 287.66C434.499 282.372 434.718 282.107 439.822 280.823C445.134 279.487 448.722 278.33 453.428 278.373C455.78 278.394 456.001 279.687 455.79 281.471C454.079 295.973 446.308 308.531 437.638 320.451C436.526 321.978 435.982 322.901 434.454 324.859C434.06 325.363 431.173 329.193 431.506 326.688C431.615 325.853 431.786 324.46 431.815 323.807ZM283.993 74.5118C284.407 65.6234 287.507 56.4456 290.641 48.1046C292.73 42.5487 295.258 37.4519 298.175 32.2522C300.173 28.6901 302.87 25.6707 305.918 22.9095C307.615 21.3723 310.295 21.4273 311.953 23.2633C317.855 29.8018 321.264 37.2558 323.792 45.6255C327.019 56.307 328.408 65.4369 328.629 76.6252C328.658 78.1074 328.884 80.4789 328.774 82.9747C328.563 87.7393 328.337 91.452 327.817 95.7121C327.572 97.7131 327.617 98.557 325.287 98.6694C315.493 99.1451 301.682 98.7554 292.487 98.3108C290.211 98.2008 290.636 97.2924 290.636 95.5424C290.636 86.6826 294.925 78.3536 303.174 76.5343C304.775 76.1805 306.505 76.0896 307.565 77.5169C308.719 79.0732 308.387 80.7466 307.755 82.2671C307.118 83.8019 303.989 87.297 305.897 86.8428C308.149 86.3049 309.38 85.1909 310.178 84.4808C312.469 82.4416 312.991 80.4884 312.566 77.3519C312.179 74.507 308.43 72.4391 304.735 72.4821C299.47 72.5419 293.891 75.3892 291.183 79.5943C290.297 80.969 290.142 81 288.32 79.7258C286.015 78.1145 283.86 77.3902 283.993 74.5118ZM264.38 80.5841C270.539 73.7444 283.411 74.256 287.355 82.9006C289.042 86.599 288.869 90.9858 287.17 94.9161C286.398 96.7019 284.319 99.1714 282.772 100.467C278.859 103.745 272.641 104.347 266.333 100.78C259.467 96.8955 259.253 86.2762 264.38 80.5841ZM195.227 52.9146C195.829 49.0179 196.263 46.9906 197.368 44.337C198.827 40.8323 201.319 41.4801 204.018 41.8411C208.107 42.391 211.709 44.3728 215.349 46.0678C224.693 50.4188 233.287 55.9962 240.956 62.9649C246.504 68.0044 251.624 73.4599 256.723 78.9417C257.376 79.6445 258.148 80.7275 258.531 81.6312C258.89 82.4775 258.084 83.0751 257.407 83.582C256.585 84.1964 256.374 84.3039 255.616 83.7708C252.168 81.3443 247.416 80.6247 243.446 79.8932C235.741 78.4731 228.293 79.2477 221.343 82.9508C216.492 85.5375 216.577 89.5395 221.165 92.5493C224.784 94.9256 228.785 95.65 232.954 95.8197C234.002 95.8627 235.437 95.8436 235.478 94.4116C235.511 93.2856 234.285 93.0824 233.282 92.8601C230.293 92.2051 227.342 91.3946 224.665 89.8455C223.836 89.365 222.745 88.9322 222.805 87.7393C222.864 86.5703 223.945 86.195 224.819 85.7694C230.398 83.0608 236.345 83.4003 242.27 83.7613C245.145 83.9358 247.887 84.7845 250.534 85.932C255.155 88.086 258.101 90.8854 259.096 95.4109C259.526 97.3713 260.919 99.0471 258.852 99.7476C245.558 104.249 230.431 110.733 216.295 112.473C213.61 112.803 209.984 112.248 209.079 110.226C205.282 101.756 201.771 92.786 199.188 83.8186C196.323 73.8663 193.645 63.1705 195.227 52.9146ZM140.701 312.047C136.985 306.123 134.409 299.74 133.506 292.757C132.815 287.412 135.281 284.928 141.546 284.404C153.74 283.383 165.491 285.521 176.95 289.513C180.967 290.912 183.692 293.503 184.621 298.074C185.365 301.729 186.475 305.332 187.166 309.021C187.368 310.094 187.698 311.498 186.781 312.11C185.75 312.798 184.785 311.617 183.973 310.969C176.142 304.732 167.928 299.143 158.705 295.124C155.502 293.728 152.138 293.106 148.814 292.243C148.482 292.157 148.097 291.765 147.9 292.339C147.876 292.408 148.465 292.752 148.802 292.877C158.631 296.458 166.489 303.154 174.624 309.406C180.141 314.283 185.051 319.097 188.261 325.433C190.839 330.52 189.877 335.44 186.957 339.624C186.026 340.958 184.396 341.003 182.882 340.958C177.144 340.785 171.763 339.062 166.781 336.422C155.947 330.675 147.246 322.485 140.701 312.047ZM198.109 382.992C196.009 386.693 193.88 390.38 191.768 394.073C187.152 402.144 182.533 410.215 177.929 418.293C172.4 427.996 166.881 437.705 161.371 447.418C160.539 448.884 160.211 449.321 159.423 450.531C158.769 451.53 157.847 452.757 157.408 453.019C156.895 453.325 156.871 450.626 156.942 449.938C157.486 444.724 157.883 440.772 158.475 435.563C159.057 430.452 159.686 425.343 160.183 420.222C160.642 415.486 161.38 411.059 161.687 406.029C161.934 401.984 162.82 401.446 159.035 401.159C156.831 400.992 154.063 401.102 154.248 398.74C154.711 392.801 155.03 386.851 155.552 380.92C156.075 374.984 156.541 369.05 156.662 363.09C156.814 355.581 156.838 355.646 164.011 354.257C166.805 353.716 169.489 352.643 172.355 352.394C176.472 351.374 180.11 350.518 183.757 349.715C186.843 349.033 187.515 349.547 187.33 352.66C186.81 361.479 186.258 370.296 185.643 379.108C185.358 383.162 185.553 383.384 189.416 382.529C191.816 381.998 194.234 381.541 196.653 381.109C197.582 380.944 198.354 380.838 198.547 381.075C199.053 381.699 198.44 382.409 198.109 382.992ZM313.595 431.288C313.595 433.739 312.735 431.14 307.03 429.66C303.155 428.654 292.283 427.334 284.865 429.45C282.917 430.007 281.349 430.672 279.603 431.578C276.609 433.132 274.898 432.759 274.922 429.5C274.936 427.71 274.915 425.921 274.91 424.131C275.096 421.372 275.412 419.194 275.431 417.014C275.452 414.664 276.792 414.26 278.541 414.767C287.519 417.372 296.64 419.287 305.859 420.779C307.688 421.076 309.268 421.379 311.309 422.02C312.53 422.402 312.948 422.57 313.409 424.241C313.436 424.336 313.521 425.635 313.528 425.735C313.695 428.42 313.595 429.505 313.595 431.288ZM419.13 285.709C419.489 285.284 420.9 283.393 420.9 283.393C420.9 283.393 421.064 285.478 421.097 286.25C421.209 288.827 420.924 291.956 420.924 294.388C420.924 295.772 419.636 295.413 418.4 295.459C416.858 295.514 416.915 295.499 417.153 293.386C417.493 290.089 416.908 288.349 419.13 285.709ZM376.318 284.734C378.97 283.723 382.242 284.268 384.145 286.183C385.549 287.596 385.758 290.01 385.028 292.573C384.579 294.151 383.822 295.016 382.855 295.796C381.208 297.123 379.481 297.335 378.347 297.507C376.596 297.773 374.244 297.173 372.624 295.537C371.049 293.945 371.02 292.009 371.695 289.778C372.455 287.273 374.175 285.552 376.318 284.734ZM425.298 241.258C424.357 246.307 423.568 252.111 422.817 257.22C421.907 263.433 421.149 270.777 420.94 277.051C420.876 278.968 419.56 279.061 418.11 279.771C417.203 280.216 416.804 279.941 416.421 279.135C415.24 276.646 414.349 274.701 412.629 272.36C411.831 271.275 411.691 271.43 412.28 270.589C414.219 267.813 415.24 265.795 416.481 262.673C416.768 261.951 417.457 258.807 417.547 258.026C417.633 257.297 417.761 254.975 417.229 255.511C416.507 256.237 414.936 258.619 414.397 259.307C411.919 262.484 410.163 263.907 407.645 266.235C406.293 267.486 406.338 267.242 404.276 265.724C402.565 264.466 400.569 263.813 398.571 263.29C396.376 262.714 396.309 263.015 397.07 261.208C397.789 259.494 398.911 257.017 399.339 254.461C399.505 253.469 399.764 249.888 398.783 251.071C398.167 251.815 396.749 253.158 395.946 254.296C395.359 255.126 392.441 258.403 392.025 258.948C389.348 262.458 389.115 261 385.672 261.965C378.093 264.088 373.869 266.718 370.702 269.439C365.598 273.823 360.992 280.77 357.851 289.939C354.646 299.291 353.957 308.928 356.173 318.66C356.934 322.002 358.711 325.194 360.573 327.711C361.431 328.873 362.678 328.703 363.812 328.493C373.726 326.659 397.122 325.394 397.122 325.394C397.122 325.394 397.652 323.226 397.766 321.414C397.896 319.358 396.642 318.995 395.692 318.392C393.494 316.998 392.881 316.85 390.723 315.105C390.008 314.526 388.321 313.365 387.602 312.506C387.027 311.82 389.623 311.38 391.163 311.093C393.817 310.599 395.905 310.333 398.823 309.788C399.659 309.633 399.526 309.661 399.704 308.717C401.591 298.715 400.279 289.869 391.201 282.236C387.865 279.429 384.266 277.942 379.607 277.648C378.977 277.608 378.875 277.66 377.414 277.567C376.658 277.519 378.376 276.345 379.203 276.051C387.96 272.929 397.621 275.248 404.551 283.116C406.818 285.688 408.569 290.441 408.899 293.116C410.016 302.174 409.529 310.295 406.785 316.403C406.402 317.257 404.91 319.093 405.623 319.532C406.126 319.843 406.763 318.992 407.238 318.481C410.465 314.993 413.005 309.236 414.447 304.773C414.955 303.2 415.012 302.958 415.383 301.999C415.742 301.067 419.831 299.508 420.931 297.947C421.503 297.137 421.325 298.791 420.954 302.683C419.971 313.059 420.85 323.881 419.847 334.457C419.132 342 417.612 349.289 414.782 356.353C410.964 365.887 405.326 374.09 398.132 381.329C390.315 389.194 380.987 394.84 371.462 400.258C364.767 404.066 357.732 407.193 350.723 410.284C345.477 412.598 339.844 414.188 333.932 414.463C321.789 415.025 309.865 413.394 298.09 410.772C285.766 408.027 273.715 404.121 262.266 398.819C252.054 394.09 247.084 391.759 237.307 385.529C232.12 382.223 225.689 377.582 219.837 371.211C215.48 366.468 210.626 356.791 209.224 352.447C206.458 343.884 202.517 331.008 200.849 319.126C199.205 307.417 198.24 295.688 199.302 283.799C199.991 276.092 201.253 268.504 202.398 260.88C203.572 253.067 207.428 247.06 213.988 242.716C222.467 237.1 231.84 233.619 241.451 230.552C252.556 227.007 264.017 225.197 275.4 223.003C280.125 222.092 286.272 221.621 291.076 221.198C292.872 221.04 293.583 219.943 293.882 217.662C294.576 212.369 295.196 207.009 295.745 201.699C296.22 197.112 296.236 193.031 296.531 188.974C296.726 186.296 296.94 183.77 296.94 180.76C296.94 179.151 297.237 176.87 297.978 177.171C298.641 177.439 299.377 178.78 300.366 181.386C302.117 186.005 302.775 189.844 303.241 194.762C303.96 202.374 304.79 209.985 304.457 217.652C304.357 219.971 304.295 219.868 306.341 219.778C310.943 219.572 316.503 219.426 321.046 219.223C332.333 218.721 344.263 219.051 355.534 219.651C356.829 219.72 356.784 219.094 356.912 218.006C358.11 207.755 358.898 197.573 358.35 187.14C358.148 183.318 357.637 180.332 357.273 176.423C357.19 175.524 356.964 173.616 357.794 174.255C359.231 175.359 359.849 176.741 360.464 177.702C361.391 179.148 362.286 180.956 363.227 183.77C366.846 194.585 368.402 205.73 368.003 217.122C367.913 219.672 367.573 220.59 369.535 220.786C378.685 221.7 389.985 223.593 399.156 225.881C406.3 227.664 413.449 229.563 419.935 233.27C420.624 233.665 421.368 233.992 421.978 234.487C424.136 236.232 426.051 237.21 425.298 241.258Z" fill="#1E1D1F"/>
<path d="M285.813 333.035C275.893 331.603 260.771 330.135 251.023 329.624C247.703 329.449 243.27 329.37 240.015 329.37C238.136 329.37 238.259 329.251 237.506 327.381C232.761 315.581 232.98 303.891 238.751 292.609C244.446 281.476 253.46 274.73 266.292 274.942C275.72 275.1 282.909 280.082 288.222 287.732C293.442 295.251 295.354 303.723 294.848 312.81C294.616 316.977 294.233 317.264 290.146 317.405C287.191 317.506 284.238 317.836 281.296 318.161C280.695 318.228 279.688 318.101 279.688 319.184C279.688 319.767 280.303 319.98 280.857 320.322C283.615 322.031 286.3 323.879 289.139 325.438C290.909 326.411 291.161 327.42 290.382 329.215C288.483 333.583 290.277 333.855 285.813 333.035ZM250.821 289.628C249.067 292.593 250.034 298.304 253.486 299.793C259.286 302.294 266.986 299.427 269.507 293.688C271.546 289.047 268.944 284.567 265.088 283.912C259.559 282.975 253.237 285.547 250.821 289.628Z" fill="#1E1D1F"/>
<path d="M301.026 276.482C303.07 279.86 303.457 282.215 304.376 285.392C304.481 285.756 304.649 287.135 304.274 287.166C304.091 287.183 303.675 286.743 303.39 286.48C296.127 279.774 287.688 275.167 278.104 273.001C268.042 270.728 258.061 271.218 248.714 276.052C239.899 280.611 234.043 287.876 230.875 297.288C228.668 303.843 227.478 311.025 228.466 316.098C229.025 318.967 229.569 320.571 228.678 320.188C227.582 319.72 226.658 318.584 226.131 317.666C223.734 313.514 222.453 308.852 221.106 305.07C220.26 302.696 219.906 303.255 217.25 301.223C216.261 300.465 214.85 299.017 214.444 298.608C213.406 297.563 211.201 293.757 212.389 294.199C213.586 294.644 215.758 295.94 216.556 296.133C217.387 296.337 218.179 296.712 218.994 296.047C219.961 295.258 219.295 294.092 218.518 293.207C216.756 291.199 214.888 289.294 213.417 287.027C211.338 283.829 209.488 280.408 209.236 276.638C209.172 275.677 209.283 275.203 209.661 275.034C210.072 274.847 212.137 277.429 212.681 277.979C215.632 280.948 215.598 280.989 218.155 283.152C219.507 284.295 220.426 284.589 221.826 282.535C224.154 279.122 225.606 278.995 222.802 274.936C221.952 273.707 220.324 271.218 219.918 269.396C219.68 268.328 219.531 267.216 219.825 266.944C220.298 266.508 221.595 267.484 221.963 267.783C223.648 269.153 225.748 270.439 227.784 271.175C229.462 271.78 230.27 272.036 231.707 270.85C233.924 269.019 234.43 268.514 236.704 267.14C238.112 266.289 237.83 265.837 237.195 264.292C236.528 262.671 234.58 256.143 236.219 257.45C237.946 258.827 239.445 260.422 241.051 261.285C243.204 262.442 244.309 263.25 246.932 262.492C254.87 260.197 263.086 258.282 271.641 259.014C277.56 259.521 281.608 260.745 286.286 262.812C293.048 265.803 296.388 268.813 301.026 276.482Z" fill="#1E1D1F"/>
<path d="M307.419 240.568C300.595 241.297 294.017 240.123 287.388 240.109C278.162 240.087 269.058 240.668 260.067 242.87C253.101 244.577 245.971 245.662 239.499 249.055C235.054 251.386 230.844 253.449 226.783 256.975C226.303 257.393 225.075 258.55 225.028 257.771C224.98 256.994 225.728 255.947 226.061 255.512C227.869 253.136 235.914 244.943 242.559 241.125C252.077 235.655 262.322 232.17 273.151 230.635C280.607 229.578 288.153 229.363 295.544 231.218C299.875 232.306 303.945 234.077 306.984 237.637C307.735 238.514 308.528 239.236 307.419 240.568Z" fill="#1E1D1F"/>
<path d="M375.929 230.426C386.806 229.135 396.369 231.007 405.59 235.9C409.705 238.085 413.564 240.662 416.766 244.119C417.158 244.543 417.465 245.052 417.809 245.52C417.132 246.006 416.552 245.568 415.954 245.317C409.294 242.508 402.468 240.454 395.25 239.51C387.866 238.542 380.971 239.52 373.722 240.416C369.876 240.892 366.72 242.013 362.962 242.828C362.384 242.953 362.011 243.022 360.778 243.29C358.39 243.809 355.107 243.911 354.209 241.75C353.263 239.472 355.893 237.949 357.744 236.665C363.145 232.926 369.129 231.231 375.929 230.426Z" fill="#1E1D1F"/>
<path d="M313.186 364.086C319.161 366.235 332.406 371.971 338.719 371.309C341.641 371.003 346.917 366.94 349.219 365.611C350.863 364.661 355.843 361.263 356.591 360.751C357.596 360.065 357.75 360.294 358.774 357.751C360.019 354.882 363.742 356.084 364.412 358.922C364.966 360.304 364.139 362.032 363.46 362.742C358.416 368.014 342.643 377.106 339.123 378.636C331.425 377.242 327.51 375.989 308.612 369.981C303.941 371.363 303.58 365.308 305.193 362.302C306.172 359.792 309.94 359.835 311.026 362.257C311.898 363.433 312.523 363.847 313.186 364.086Z" fill="#1E1D1F"/>
<path d="M346.477 348.294C346.48 348.321 346.477 348.349 346.475 348.376C346.126 351.142 343.752 350.907 341.652 351.072C337.525 351.397 333.379 351.699 329.233 351.813C326.565 351.888 326.149 351.068 327.002 348.526C330.036 343.63 332.459 340.782 337.709 340.781C341.652 340.781 344.575 344.445 346.477 348.294Z" fill="#1E1D1F"/>
<path d="M284.786 94.0867C280.411 100.985 271.953 102.449 266.471 97.4528C261.955 93.3392 262.047 86.5312 267.146 81.8309C273.073 76.3689 283.102 78.3915 285.321 85.8121C286.138 88.5325 285.962 91.2386 284.786 94.0867Z" fill="#1E1D1F"/>
<ellipse cx="274.51" cy="89.8565" rx="16.405" ry="15.6905" stroke="#1E1D1F" stroke-width="5.20416"/>
<ellipse cx="3.40602" cy="4.26444" rx="3.40602" ry="4.26444" transform="matrix(0.768458 -0.6399 0.633406 0.773819 356.5 358.964)" fill="#1E1D1F"/>
<path d="M284.784 94.0857C280.409 100.984 271.951 102.448 266.469 97.4519C261.953 93.3382 262.045 86.5302 267.144 81.83C273.071 76.368 283.1 78.3905 285.319 85.8111C286.136 88.5315 285.96 91.2376 284.784 94.0857Z" fill="#1E1D1F"/>
<path d="M273.046 83.6886C273.158 83.188 273.816 83.0683 274.095 83.498L275.949 86.3609C276.066 86.5409 276.272 86.6412 276.486 86.6213L279.87 86.3062C280.378 86.2589 280.692 86.8439 280.373 87.2427L278.236 89.9195C278.103 90.0862 278.072 90.3125 278.156 90.5084L279.5 93.6609C279.7 94.131 279.237 94.6126 278.76 94.4295L275.594 93.2135C275.393 93.1362 275.165 93.1776 275.003 93.3208L272.457 95.575C272.073 95.9145 271.472 95.6263 271.497 95.1153L271.666 91.6877C271.677 91.4748 271.57 91.2736 271.387 91.1642L268.458 89.4082C268.021 89.1466 268.113 88.4879 268.605 88.3535L271.886 87.4574C272.093 87.4008 272.252 87.2341 272.299 87.0243L273.046 83.6886Z" fill="#FFFDFF"/>
<path d="M282.995 83.6974C282.995 84.7355 282.161 85.5769 281.132 85.5769C280.102 85.5769 279.035 84.5005 279.035 83.4625C279.035 82.4245 279.869 81.583 280.899 81.583C281.928 81.583 282.995 82.6594 282.995 83.6974Z" fill="#FFFDFF"/>
<path d="M186.213 396.293C181.193 404.974 176.382 413.328 171.442 421.854C171.185 422.299 170.61 423.452 169.943 423.343C169.066 423.196 169.089 422.143 169.119 421.794C170.057 411.189 170.9 401.471 171.799 391.306C172.222 386.516 172.812 387.091 167.192 387.056C162.947 387.03 163.546 387.163 163.65 383.85C163.941 374.599 164.911 365.17 165.125 355.918C165.169 354.027 165.949 353.003 168.315 352.45C175.682 350.732 182.993 348.849 190.319 347.008C191.995 346.588 192.191 347.398 192.095 348.378C191.661 352.78 191.567 353.295 191.014 358.901C190.776 361.313 190.86 363.62 190.622 366.031C190.39 368.376 190.704 369.076 193.62 368.73C196.106 368.437 198.603 368.222 201.082 367.897C202.741 367.68 202.727 368.369 202.217 369.242C198.838 375.035 195.433 380.817 192.015 386.595C190.133 389.788 188.209 392.961 186.213 396.293Z" fill="#F9ED32"/>
<path d="M457.39 382.599C452.37 391.279 447.559 399.634 442.62 408.16C442.362 408.605 441.787 409.758 441.121 409.648C440.243 409.502 440.267 408.449 440.297 408.099C441.235 397.494 442.078 387.777 442.977 377.611C443.399 372.822 443.989 373.396 438.369 373.362C434.125 373.336 434.723 373.469 434.827 370.156C435.119 360.904 436.089 351.476 436.303 342.224C436.347 340.332 437.126 339.309 439.493 338.756C446.859 337.038 454.171 335.154 461.497 333.314C463.172 332.894 463.369 333.704 463.272 334.684C462.838 339.085 462.745 339.601 462.192 345.207C461.954 347.619 462.038 349.925 461.8 352.337C461.568 354.682 461.882 355.382 464.798 355.036C467.284 354.742 469.781 354.527 472.26 354.202C473.919 353.986 473.905 354.675 473.395 355.548C470.016 361.341 466.61 367.123 463.193 372.901C461.311 376.094 459.387 379.267 457.39 382.599Z" fill="#1E1D1F"/>
<path d="M25.0374 80.5149C24.606 78.2291 27.1354 76.5503 29.0474 77.8535L54.9841 95.5316C55.7898 96.0808 56.8344 96.1286 57.6892 95.6553L85.1445 80.4545C87.1684 79.3339 89.5227 81.2255 88.8848 83.4596L80.2152 113.823C79.9466 114.764 80.2216 115.775 80.9278 116.444L103.756 138.078C105.436 139.67 104.363 142.518 102.054 142.597L70.7689 143.665C69.7932 143.698 68.9169 144.28 68.5008 145.17L55.1592 173.721C54.1746 175.828 51.156 175.696 50.3698 173.511L39.6853 143.817C39.3547 142.899 38.542 142.244 37.5788 142.121L6.48896 138.146C4.20136 137.854 3.40885 134.926 5.22988 133.494L29.9325 114.078C30.7016 113.473 31.0711 112.487 30.8893 111.523L25.0374 80.5149Z" fill="#FFFDFF" stroke="#5271FF" stroke-width="6.51256"/>
<path d="M117.746 486.5L437.592 486.5" stroke="#1E1D1F" stroke-width="5.69849" stroke-linecap="round"/>
</svg>
